<svg width="200" height="200" xmlns="http://www.w3.org/2000/svg">
 <!-- Created with Method Draw - http://github.com/duopixel/Method-Draw/ -->

 <g>
  <title>background</title>
  <rect fill="none" id="canvas_background" height="202" width="202" y="-1" x="-1"/>
  <g display="none" overflow="visible" y="0" x="0" height="100%" width="100%" id="canvasGrid">
   <rect fill="url(#gridpattern)" stroke-width="0" y="0" x="0" height="100%" width="100%"/>
  </g>
 </g>
 <g>
  <title>Layer 1</title>
  <!-- Created with Method Draw - http://github.com/duopixel/Method-Draw/ -->
  <g stroke="null" id="svg_45">
   <g stroke="null" transform="matrix(1.19637 0 0 1.19637 10.6786 1.04657)" id="svg_42">
    <title stroke="null">background</title>
    <rect stroke="null" x="-26.339643" y="-18.288606" width="202" height="202" id="svg_40" fill="transparent"/>
    <g stroke="null" id="svg_39" display="none">
     <rect stroke="null" id="svg_43" width="580" height="400" x="-25.339643" y="-17.288606" stroke-width="0" fill="url(#gridpattern)"/>
    </g>
   </g>
   <g stroke="null" transform="matrix(1.19637 0 0 1.19637 10.6786 1.04657)" id="svg_44">
    <title stroke="null">Layer 1</title>
    <defs stroke="null" transform="translate(0 0.417939) translate(-1.25379 0) translate(-1.67172 13.3738) translate(-3.41408 -31.5803) translate(-60 -168) translate(-190.5 126) translate(-103.5 -157.5) translate(335 0) translate(0 200)">
     <style stroke="null">.cls-1 {
        fill: none;
      }

      .cls-2 {
        clip-path: url(#clip-path);
      }

      .cls-3 {
        fill: #a32422;
      }

      .cls-4 {
        fill: #dc382c;
      }

      .cls-5 {
        fill: #fff;
      }

      .cls-6 {
        fill: #741113;
      }

      .cls-7 {
        fill: #ac2724;
      }</style>
     <clipPath stroke="null" id="svg_37">
      <rect stroke="null" class="cls-1" width="146.42" height="125.48" id="svg_38"/>
     </clipPath>
    </defs>
    <g stroke="null" id="svg_22">
     <g stroke="null" id="svg_23" transform="matrix(1.09247 0 0 1.09247 -127.549 -149.412)">
      <g stroke="null" id="svg_24">
       <g stroke="null" class="cls-2" id="svg_30">
        <path stroke="null" class="cls-3" d="m252.559311,246.434967c-7.799988,4.079956 -48.280029,20.729919 -57,25.299957s-13.39003,4.439972 -20.210007,1.179993s-49.749962,-20.71991 -57.529961,-24.440002c-3.920013,-1.839935 -5.920013,-3.410004 -5.920013,-4.879974l0,-14.810043s56.079979,-12.169983 65.129967,-15.44989s12.179962,-3.360107 19.870041,-0.5401s53.789978,11.140015 61.399979,13.900024l0,14.600021c0,1.519958 -1.75,3 -5.740005,5.129944l0,0.010071z" id="svg_36"/>
        <path stroke="null" class="cls-4" d="m252.559311,231.694931c-7.799988,4.059998 -48.280029,20.709976 -57,25.200058s-13.39003,4.450012 -20.210007,1.199951s-49.749962,-20.710007 -57.529961,-24.400009s-7.93,-6.27002 -0.299988,-9.25s50.459953,-19.75 59.509941,-23.049957s12.179962,-3.370026 19.870041,-0.54007s48,18.840027 55.569977,21.630066s7.920029,5.079956 0.089996,9.129944l0,0.080017z" id="svg_35"/>
        <path stroke="null" class="cls-3" d="m252.559311,222.314987c-7.799988,4.069946 -48.280029,20.709976 -57,25.199936s-13.350052,4.450012 -20.170029,1.180023s-49.78994,-20.63002 -57.569939,-24.340042c-3.920013,-1.859985 -5.920013,-3.419983 -5.920013,-4.899902l0,-14.760071s56.079979,-12.209961 65.129967,-15.48996s12.179962,-3.369995 19.870041,-0.51004s53.789978,11.099976 61.399979,13.880005l0,14.599976c0,1.52002 -1.75,3.0401 -5.740005,5.140076z" id="svg_34"/>
        <path stroke="null" class="cls-4" d="m252.559311,207.504929c-7.799988,4.080048 -48.280029,20.720001 -57,25.209961s-13.39003,4.460022 -20.210007,1.200043s-49.749962,-20.649963 -57.529961,-24.370026s-7.920013,-6.249969 -0.299988,-9.229919s50.459953,-19.790009 59.509941,-23s12.179962,-3.410065 19.870041,-0.620056s48,18.940033 55.569977,21.650024s7.920029,5.089996 0.089996,9.129944l0,0.030029z" id="svg_33"/>
        <path stroke="null" class="cls-3" d="m252.559311,197.284958c-7.799988,4.079956 -48.280029,20.72998 -57,25.209961s-13.350052,4.450012 -20.170029,1.200012s-49.78994,-20.659973 -57.569939,-24.369965c-3.920013,-1.839996 -5.920013,-3.410034 -5.920013,-4.890015l0,-14.810028s56.079979,-12.170044 65.129967,-15.440002s12.179962,-3.370026 19.870041,-0.549988s53.77005,11.140045 61.379959,13.920044l0,14.599976c0.02002,1.539978 -1.72998,3.040039 -5.719986,5.130005z" id="svg_32"/>
        <path stroke="null" class="cls-4" d="m252.559311,182.494919c-7.799988,4 -48.280029,20.750031 -57,25.200012s-13.39003,4.440002 -20.210007,1.200043s-49.749962,-20.670044 -57.529961,-24.369995s-7.93,-6.27005 -0.299988,-9.249969s50.459953,-19.78009 59.509941,-23.0401s12.179962,-3.359985 19.870041,-0.539978s48,18.849976 55.569977,21.630035s7.920029,5.089966 0.089996,9.139984l0,0.029968z" id="svg_31"/>
       </g>
       <polygon stroke="null" class="cls-5" points="187.39935302734375,161.46488440036774 197.05931091308594,158.2949320077896 194.43930053710938,164.5549417734146 204.2693634033203,168.23490393161774 191.59930419921875,169.55497229099274 188.74932861328125,176.39496862888336 184.16928100585938,168.7648721933365 169.519287109375,167.444925904274 180.45928955078125,163.50492346286774 177.16928100585938,157.444925904274 187.39935302734375,161.46488440036774 187.39935302734375,161.46488440036774 187.39935302734375,161.46488440036774 " id="svg_29"/>
       <polygon stroke="null" class="cls-5" points="188.00933837890625,201.39496862888336 164.32928466796875,191.5649210214615 198.2493438720703,186.35489904880524 188.00933837890625,201.39496862888336 188.00933837890625,201.39496862888336 188.00933837890625,201.39496862888336 " id="svg_28"/>
       <path stroke="null" class="cls-5" d="m155.179321,172.034958c10,0 18.130005,3.150024 18.130005,7s-8.150055,7 -18.130005,7s-18.140015,-3.149994 -18.140015,-7s8.130005,-7 18.140015,-7z" id="svg_27"/>
       <polygon stroke="null" class="cls-6" points="219.27928161621094,170.1049600839615 239.3493194580078,178.03495275974274 219.29930114746094,185.964945435524 219.27928161621094,170.1049600839615 219.27928161621094,170.1049600839615 219.27928161621094,170.1049600839615 " id="svg_26"/>
       <polygon stroke="null" class="cls-7" points="219.27928161621094,170.1049600839615 219.29930114746094,185.964945435524 217.1193084716797,186.81489050388336 197.05931091308594,178.88495886325836 219.27928161621094,170.1049600839615 219.27928161621094,170.1049600839615 219.27928161621094,170.1049600839615 " id="svg_25"/>
      </g>
     </g>
    </g>
   </g>
  </g>
 </g>
</svg>