<svg width="148" height="127" xmlns="http://www.w3.org/2000/svg" class="w-auto h-8">
 <defs>
  <style>.cls-1 {
        fill: none;
      }

      .cls-2 {
        clip-path: url(#clip-path);
      }

      .cls-3 {
        fill: #a32422;
      }

      .cls-4 {
        fill: #dc382c;
      }

      .cls-5 {
        fill: #fff;
      }

      .cls-6 {
        fill: #741113;
      }

      .cls-7 {
        fill: #ac2724;
      }</style>
  <clipPath id="clip-path">
   <rect class="cls-1" width="146.42" height="125.48" id="svg_1" fill="transparent"/>
  </clipPath>
 </defs>
 <g>
  <title>background</title>
  <rect x="-1" y="-1" width="150" height="129" id="canvas_background" fill="transparent"/>
 </g>
 <g>
  <title>Layer 1</title>
  <g id="Layer_2" stroke="null">
   <g id="Layer_1-2" stroke="null">
    <g class="cls-2" id="svg_2" stroke="null">
     <path class="cls-3" d="m141.464981,96.856323c-7.800003,4.079994 -48.279984,20.729996 -56.999985,25.299995s-13.390007,4.440018 -20.210007,1.180008s-49.75,-20.719994 -57.53,-24.439995c-3.92,-1.840004 -5.92,-3.410004 -5.92,-4.880005l0,-14.810005s56.080001,-12.169998 65.130008,-15.450001s12.179993,-3.360001 19.870003,-0.540001s53.78997,11.140011 61.399986,13.900013l0,14.599998c0,1.519997 -1.750015,3 -5.740021,5.129997l0.000031,0.009995l-0.000015,0z" id="svg_3" stroke="null" stroke-width="81"/>
     <path class="cls-4" d="m141.464981,82.116333c-7.800003,4.059998 -48.279984,20.709999 -56.999985,25.199997s-13.390007,4.449997 -20.210007,1.199997s-49.75,-20.709999 -57.53,-24.399994s-7.93,-6.270004 -0.3,-9.25s50.460008,-19.750011 59.510007,-23.050014s12.179993,-3.369999 19.870003,-0.539997s47.999992,18.840012 55.569984,21.630005s7.919998,5.080002 0.089996,9.130005l0,0.080002z" id="svg_4" stroke="null" stroke-width="81"/>
     <path class="cls-3" d="m141.464981,72.736328c-7.800003,4.07 -48.279984,20.709999 -56.999985,25.200005s-13.350006,4.449997 -20.170006,1.18s-49.790001,-20.630005 -57.569991,-24.340004c-3.92,-1.860001 -5.92,-3.420006 -5.92,-4.900002l0,-14.760006s56.079998,-12.210003 65.130013,-15.490013s12.179985,-3.369999 19.87001,-0.509987s53.789963,11.099998 61.399994,13.879997l0,14.60001c0,1.520004 -1.750031,3.039993 -5.740021,5.139999l-0.000015,0z" id="svg_5" stroke="null" stroke-width="81"/>
     <path class="cls-4" d="m141.464981,57.926319c-7.800003,4.07999 -48.279984,20.719997 -56.999985,25.210003s-13.390007,4.460007 -20.210007,1.199997s-49.75,-20.650009 -57.53,-24.37001s-7.92,-6.25 -0.3,-9.23s50.460008,-19.789999 59.510007,-22.999989s12.179993,-3.41 19.870003,-0.620001s47.999992,18.939989 55.569984,21.65s7.919998,5.09 0.089996,9.130001l0,0.03001l0,-0.000011z" id="svg_6" stroke="null" stroke-width="81"/>
     <path class="cls-3" d="m141.464981,47.70631c-7.800003,4.079998 -48.279984,20.730007 -56.999985,25.210011s-13.350006,4.449997 -20.170006,1.199997s-49.790001,-20.659996 -57.569991,-24.370007c-3.92,-1.84 -5.92,-3.41 -5.92,-4.889999l0,-14.810001s56.079998,-12.17 65.130013,-15.440001s12.179985,-3.37 19.87001,-0.55s53.769974,11.14 61.37999,13.920001l0,14.599991c0.020004,1.539997 -1.730026,3.039997 -5.720016,5.129997l-0.000015,0.000011z" id="svg_7" stroke="null" stroke-width="81"/>
     <path class="cls-4" d="m141.464981,32.916309c-7.800003,4 -48.279984,20.75 -56.999985,25.200001s-13.390007,4.439991 -20.210007,1.200001s-49.75,-20.67001 -57.53,-24.369999s-7.93,-6.269993 -0.3,-9.250002s50.460008,-19.78 59.510007,-23.04s12.179993,-3.36 19.870003,-0.54s47.999992,18.850001 55.569984,21.629999s7.919998,5.09 0.089996,9.13999l0,0.030003l0,0.000008z" id="svg_8" stroke="null" stroke-width="81"/>
    </g>
    <polygon class="cls-5" points="76.30500030517578,11.886319674551487 85.96500396728516,8.716319598257542 83.3449935913086,14.976319827139378 93.17499542236328,18.65632013231516 80.50499725341797,19.97632173448801 77.6550064086914,26.816319979727268 73.07498931884766,19.186320818960667 58.424991607666016,17.866321124136448 69.36499786376953,13.926318682730198 66.07498931884766,7.866321124136448 76.30500030517578,11.886319674551487 76.30500030517578,11.886319674551487 76.30500030517578,11.886319674551487 " id="svg_9" stroke="null" stroke-width="81"/>
    <polygon class="cls-5" points="76.91500091552734,51.81631997972727 53.234989166259766,41.986321963369846 87.1550064086914,36.77631524950266 76.91500091552734,51.81631997972727 76.91500091552734,51.81631997972727 76.91500091552734,51.81631997972727 " id="svg_10" stroke="null" stroke-width="81"/>
    <path class="cls-5" d="m44.084999,22.45632c10,0 18.12999,3.15 18.12999,7s-8.14999,6.99999 -18.12999,6.99999s-18.139999,-3.150002 -18.139999,-6.99999s8.12999,-7 18.139999,-7z" id="svg_11" stroke="null" stroke-width="81"/>
    <polygon class="cls-6" points="108.18500518798828,20.526320971548557 128.25498962402344,28.45632318407297 108.20499420166016,36.38631967455149 108.18500518798828,20.526320971548557 108.18500518798828,20.526320971548557 108.18500518798828,20.526320971548557 " id="svg_12" stroke="null" stroke-width="81"/>
    <polygon class="cls-7" points="108.18500518798828,20.526320971548557 108.20499420166016,36.38631967455149 106.0250015258789,37.236321963369846 85.96500396728516,29.30632547289133 108.18500518798828,20.526320971548557 108.18500518798828,20.526320971548557 108.18500518798828,20.526320971548557 " id="svg_13" stroke="null" stroke-width="81"/>
   </g>
  </g>
 </g>
</svg>
