<svg width="200" height="200" xmlns="http://www.w3.org/2000/svg">
 <!-- Created with Method Draw - http://github.com/duopixel/Method-Draw/ -->
 <g>
  <title>Layer 1</title>
  <defs>
   <style>.cls-1 {
        fill: none;
      }

      .cls-2 {
        clip-path: url(#clip-path);
      }

      .cls-3 {
        fill: #a32422;
      }

      .cls-4 {
        fill: #dc382c;
      }

      .cls-5 {
        fill: #fff;
      }

      .cls-6 {
        fill: #741113;
      }

      .cls-7 {
        fill: #ac2724;
      }</style>
   <clipPath id="svg_8">
    <rect id="svg_10" height="125.48" width="146.42" class="cls-1"/>
   </clipPath>
  </defs>
  <g stroke="null" id="svg_23">
   <g stroke="null" transform="matrix(1.09247 0 0 1.09247 -127.549 -149.412)" id="svg_6">
    <g stroke="null" id="svg_7">
     <g stroke="null" id="svg_11" class="cls-2">
      <path stroke="null" id="svg_12" d="m275.75412,262.260193c-7.799988,4.079987 -48.280029,20.72998 -57,25.299957s-13.390015,4.440033 -20.210022,1.180023s-49.749969,-20.719971 -57.529984,-24.440002c-3.919998,-1.839966 -5.919998,-3.410004 -5.919998,-4.880005l0,-14.810028s56.079987,-12.169952 65.129974,-15.449921s12.180023,-3.360062 19.870026,-0.54007s53.790009,11.140015 61.399994,13.900055l0,14.599945c0,1.52002 -1.75,3 -5.73999,5.130035l0,0.01001z" class="cls-3"/>
      <path stroke="null" id="svg_13" d="m275.75412,247.520203c-7.799988,4.059982 -48.280029,20.709961 -57,25.200012s-13.390015,4.450012 -20.210022,1.200012s-49.749969,-20.710037 -57.529984,-24.400024s-7.929993,-6.27002 -0.299988,-9.25s50.459976,-19.75 59.509964,-23.050003s12.180023,-3.36998 19.870026,-0.54007s48,18.840073 55.570038,21.630051s7.919952,5.080017 0.089966,9.130005l0,0.080017z" class="cls-4"/>
      <path stroke="null" id="svg_14" d="m275.75412,238.140198c-7.799988,4.069992 -48.280029,20.710022 -57,25.199982s-13.350006,4.450012 -20.170013,1.180023s-49.789978,-20.630035 -57.569992,-24.340027c-3.919998,-1.859985 -5.919998,-3.420013 -5.919998,-4.899963l0,-14.76001s56.079987,-12.210022 65.129974,-15.48999s12.180023,-3.370026 19.870026,-0.51001s53.790009,11.099945 61.399994,13.879959l0,14.600021c0,1.52002 -1.75,3.040039 -5.73999,5.140015z" class="cls-3"/>
      <path stroke="null" id="svg_15" d="m275.75412,223.330185c-7.799988,4.080002 -48.280029,20.719986 -57,25.209976s-13.390015,4.460022 -20.210022,1.200012s-49.749969,-20.649963 -57.529984,-24.369995s-7.919998,-6.250015 -0.299988,-9.22998s50.459976,-19.789978 59.509964,-23s12.180023,-3.410034 19.870026,-0.619995s48,18.939987 55.570038,21.649963s7.919952,5.090012 0.089966,9.12999l0,0.030029z" class="cls-4"/>
      <path stroke="null" id="svg_16" d="m275.75412,213.110168c-7.799988,4.080017 -48.280029,20.730026 -57,25.210022s-13.350006,4.450012 -20.170013,1.200012s-49.789978,-20.660034 -57.569992,-24.370026c-3.919998,-1.839996 -5.919998,-3.410004 -5.919998,-4.889999l0,-14.810028s56.079987,-12.169998 65.129974,-15.439987s12.180023,-3.369995 19.870026,-0.549988s53.77002,11.140015 61.379974,13.920013l0,14.599976c0.02002,1.540039 -1.72998,3.040039 -5.719971,5.130005z" class="cls-3"/>
      <path stroke="null" id="svg_17" d="m275.75412,198.32019c-7.799988,4 -48.280029,20.75 -57,25.200012s-13.390015,4.440002 -20.210022,1.200012s-49.749969,-20.670044 -57.529984,-24.369995s-7.929993,-6.27002 -0.299988,-9.25s50.459976,-19.78006 59.509964,-23.040054s12.180023,-3.360001 19.870026,-0.539978s48,18.849991 55.570038,21.62999s7.919952,5.089996 0.089966,9.14003l0,0.029984z" class="cls-4"/>
     </g>
     <polygon stroke="null" id="svg_18" points="210.5941162109375,177.2901587486267 220.25411987304688,174.1201605796814 217.63412475585938,180.38015508651733 227.464111328125,184.0601782798767 214.79409790039062,185.38018560409546 211.94412231445312,192.22019720077515 207.36410522460938,184.59014654159546 192.714111328125,183.27020025253296 203.65411376953125,179.33016729354858 200.36410522460938,173.2701849937439 210.5941162109375,177.2901587486267 210.5941162109375,177.2901587486267 210.5941162109375,177.2901587486267 " class="cls-5"/>
     <polygon stroke="null" id="svg_19" points="211.2041015625,217.22019720077515 187.5241241455078,207.39019536972046 221.44412231445312,202.1801733970642 211.2041015625,217.22019720077515 211.2041015625,217.22019720077515 211.2041015625,217.22019720077515 " class="cls-5"/>
     <path stroke="null" id="svg_20" d="m178.374115,187.860168c10,0 18.130005,3.150024 18.130005,7s-8.150009,7 -18.130005,7s-18.139999,-3.149979 -18.139999,-7s8.130005,-7 18.139999,-7z" class="cls-5"/>
     <polygon stroke="null" id="svg_21" points="242.47409057617188,185.93020391464233 262.54412841796875,193.86016607284546 242.49411010742188,201.79018926620483 242.47409057617188,185.93020391464233 242.47409057617188,185.93020391464233 242.47409057617188,185.93020391464233 " class="cls-6"/>
     <polygon stroke="null" id="svg_22" points="242.47409057617188,185.93020391464233 242.49411010742188,201.79018926620483 240.31411743164062,202.64016485214233 220.25411987304688,194.71018743515015 242.47409057617188,185.93020391464233 242.47409057617188,185.93020391464233 242.47409057617188,185.93020391464233 " class="cls-7"/>
    </g>
   </g>
  </g>
 </g>
</svg>